<svg xmlns="http://www.w3.org/2000/svg" xmlns:xlink="http://www.w3.org/1999/xlink" height="304.2"
						width="800" viewBox="1900 323.8 800 304.20002" class="logo-medium">
						<defs>
							<radialGradient gradientUnits="userSpaceOnUse" r="152.094" fy="475.972" fx="2412.87"
								cy="475.972" cx="2412.87" id="b" xlink:href="#a" gradientTransform="translate(4.02)" />
							<linearGradient id="a">
								<stop offset="0" stop-color="#fff" />
								<stop offset="0.2" stop-color="#f7c553" stop-opacity="0.8" />
								<stop offset="0.7" stop-color="#f7c553" stop-opacity="0.7" />
								<stop offset="1" stop-color="#f7c553" stop-opacity="0" />
							</linearGradient>
						</defs>

						<g fill="#f2b139">
							<path
								d="M2314.5 576.9h199.2M2513.1 588.9H2314c-6.3 0-12.1-5.2-12.1-12.1 0-6.9 5.2-12.1 12.1-12.1h199.1c6.3 0 12.1 5.2 12.1 12.1-.1 7-5.2 12.1-12.1 12.1z" />
						</g>
						<path
							d="M2474.9 416.1c-3.2-10.8-8.3-21-16.1-29-2.1-2.1-4.3-4.1-6.5-6.1-1.7-1.6-6-4.1-6.9-6.2 4.6 10.7 9.1 21.8 5.7 33.6-1.6 5.3-7.4 18.1-15.1 14.8-7.2-3.1-6.4-18.3-7-24.4-1.5-15.1-4.9-30.1-12.9-43.1-4.4-7.1-10.1-13.4-17.3-17.7-9.5-5.6-19.3-9.4-30.1-5.3 2.4-.9 8.6 6.3 9.8 7.7 3.8 4.5 6.9 9.8 8.6 15.4 3.4 11.4.4 24.5-3.6 35.4-8.3 22.6-22.1 42.9-28.7 66.1-2.3 8.1-3.9 16.4-4.3 24.8-1.4 26.5 12.4 50.8 34.2 65.6 4.9 3.4 13.7 7.6 20 5.4-18.3-9.8-24.4-17.8-27.2-29.3-6.6-26.7 18.4-43.7 29.2-64.8 2.9-5.6 5-11.8 4.2-18.2-.3-2.4-3-14.1-6.6-13.5 10.9-1.7 18 5.5 21.7 14.9 3.9 10 6.3 20.2 4.5 30.8-.6 3.5-3.2 14.6 1.9 15.3 7.1 1 13.1-8.4 11.7-17.4-.7-4.2-1.5-10.6-1.5-10.6 7.5 9.2 10.9 18.5 12 28.6 2 18.1-5.8 42-20.3 56.8 6.1-6.2 13.9-10.5 19.8-17.2 6-6.8 10.6-14.6 14.2-23 8.1-18.6 12.8-39.6 11.4-59.9-.5-9.7-1.9-19.9-4.8-29.5z"
							fill="#f2b139" />
						<circle r="152.094" cy="475.972" cx="2416.891" fill="url(#b)" class="svg-fire" />
					</svg>